<svg version="1.1" viewBox="0.0 0.0 1280.0 720.0" fill="none" stroke="none" stroke-linecap="square" stroke-miterlimit="10" xmlns:xlink="http://www.w3.org/1999/xlink" xmlns="http://www.w3.org/2000/svg"><clipPath id="p3.0"><path d="m0 0l1280.0 0l0 720.0l-1280.0 0l0 -720.0z" clip-rule="nonzero"/></clipPath><g clip-path="url(#p3.0)"><path fill="#000000" d="m0 0l1280.0 0l0 720.0l-1280.0 0z" fill-rule="evenodd"/><path fill="#97446e" d="m0 0l1279.9749 0l0 719.9622l-1279.9749 0z" fill-rule="evenodd"/><path fill="#fdfbf9" d="m0 0l1279.9749 0l0 719.9622l-1279.9749 0z" fill-rule="evenodd"/><path fill="#ff74bc" fill-opacity="0.49803922" d="m21.959057 85.41732l0 0c0 -4.988823 4.044243 -9.033066 9.03307 -9.033066l0 0c2.3957214 0 4.6933174 0.9516907 6.387348 2.6457214c1.694027 1.6940308 2.6457253 3.9916306 2.6457253 6.3873444l0 0c0 4.9888306 -4.0442467 9.033073 -9.033073 9.033073l0 0c-4.9888268 0 -9.03307 -4.044243 -9.03307 -9.033073z" fill-rule="evenodd"/><path fill="#f39e29" fill-opacity="0.49803922" d="m99.74174 20.258268l0 0c0 -3.2771797 2.6566772 -5.933859 5.933861 -5.933859l0 0c1.5737534 0 3.0830536 0.6251726 4.1958694 1.7379875c1.1128159 1.112814 1.7379837 2.6221142 1.7379837 4.1958714l0 0c0 3.2771797 -2.6566772 5.933857 -5.933853 5.933857l0 0c-3.2771835 0 -5.933861 -2.6566772 -5.933861 -5.933857z" fill-rule="evenodd"/><path fill="#c885a7" fill-opacity="0.49803922" d="m1215.2693 631.1433l0 0c0 -8.850464 7.1746826 -16.025208 16.025146 -16.025208l0 0c4.250244 0 8.326294 1.6883545 11.331543 4.6936646c3.005371 3.00531 4.6937256 7.081421 4.6937256 11.331543l0 0c0 8.850464 -7.1748047 16.025208 -16.025269 16.025208l0 0c-8.850464 0 -16.025146 -7.1747437 -16.025146 -16.025208z" fill-rule="evenodd"/><path fill="#24beee" fill-opacity="0.49803922" d="m10.053543 130.94173l0 0c0 -6.564789 5.3218184 -11.886612 11.886614 -11.886612l0 0c3.1525269 0 6.175934 1.2523422 8.405106 3.481514c2.2291737 2.2291718 3.4815083 5.2525787 3.4815083 8.405098l0 0c0 6.564804 -5.3218174 11.886612 -11.886614 11.886612l0 0c-6.5647955 0 -11.886614 -5.321808 -11.886614 -11.886612z" fill-rule="evenodd"/><path fill="#ff2f9b" fill-opacity="0.7176471" d="m1211.2252 78.27402l0 0c0 -11.0839615 8.985352 -20.069294 20.069336 -20.069294l0 0c5.322632 0 10.427368 2.114437 14.19104 5.8781624c3.763794 3.7637177 5.878174 8.868423 5.878174 14.191132l0 0c0 11.0839615 -8.9852295 20.06929 -20.069214 20.06929l0 0c-11.083984 0 -20.069336 -8.985329 -20.069336 -20.06929z" fill-rule="evenodd"/><path fill="#f39e29" d="m1178.4188 37.417324l0 0c0 -3.2771797 2.6567383 -5.933859 5.93396 -5.933859l0 0c1.5737305 0 3.0830078 0.62517357 4.195801 1.7379856c1.112793 1.1128159 1.7380371 2.622116 1.7380371 4.1958733l0 0c0 3.2771797 -2.6567383 5.933857 -5.933838 5.933857l0 0c-3.2772217 0 -5.93396 -2.6566772 -5.93396 -5.933857z" fill-rule="evenodd"/><path fill="#e3bebe" fill-opacity="0.2784314" d="m1220.9763 580.51654l0 0c0 -2.72406 2.208374 -4.932312 4.932373 -4.932312l0 0c1.3081055 0 2.562622 0.5196533 3.487671 1.4446411c0.92492676 0.9249878 1.4445801 2.1795044 1.4445801 3.487671l0 0c0 2.723999 -2.208252 4.932251 -4.932251 4.932251l0 0c-2.723999 0 -4.932373 -2.208252 -4.932373 -4.932251z" fill-rule="evenodd"/><path fill="#24beee" d="m1093.4551 648.98267l0 0c0 -3.2771606 2.6567383 -5.933838 5.93396 -5.933838l0 0c1.5737305 0 3.0830078 0.6251221 4.195801 1.7379761c1.112793 1.112793 1.7380371 2.6220703 1.7380371 4.195862l0 0c0 3.2771606 -2.6567383 5.933838 -5.933838 5.933838l0 0c-3.2772217 0 -5.93396 -2.6566772 -5.93396 -5.933838z" fill-rule="evenodd"/><path fill="#edd5e0" d="m1062.5009 672.8315l0 0c0 -8.850464 7.1746826 -16.025146 16.025146 -16.025146l0 0c4.250122 0 8.326294 1.6883545 11.331543 4.6936646c3.005249 3.00531 4.6937256 7.08136 4.6937256 11.331482l0 0c0 8.850464 -7.1748047 16.025208 -16.025269 16.025208l0 0c-8.850464 0 -16.025146 -7.1747437 -16.025146 -16.025208z" fill-rule="evenodd"/><path fill="#f5c6b8" d="m1042.9606 657.2976l0 0c0 -3.2771606 2.6567383 -5.933838 5.93396 -5.933838l0 0c1.5737305 0 3.0830078 0.6251831 4.195801 1.7379761c1.112793 1.112793 1.7380371 2.6221313 1.7380371 4.195862l0 0c0 3.2772217 -2.6567383 5.933899 -5.933838 5.933899l0 0c-3.2772217 0 -5.93396 -2.6566772 -5.93396 -5.933899z" fill-rule="evenodd"/><path fill="#f5c6b8" d="m1255.6833 663.2693c9.21875 0 17.56482 3.7373657 23.606201 9.779907l0.68530273 0.7541504l0 45.71344l-0.40478516 0.44543457l-47.773438 0l-1.8741455 -2.062561c-4.762329 -5.7718506 -7.623291 -13.17157 -7.623291 -21.239624c0 -18.441223 14.946655 -33.390747 33.384155 -33.390747z" fill-rule="evenodd"/><path fill="#edd5e0" d="m0 0l48.176746 0l2.3969002 4.415665c1.8960152 4.4824805 2.9444618 9.410639 2.9444618 14.583717c0 20.692307 -16.775574 37.46676 -37.46926 37.46676c-5.173423 0 -10.101912 -1.048378 -14.584691 -2.9442673l-1.4641545 -0.7946472z" fill-rule="evenodd"/><path fill="#d6638e" d="m1105.4817 0l57.886963 0l0.12109375 0.5991245c0 16.034185 -13.012573 29.03237 -29.064575 29.03237c-16.05188 0 -29.064575 -12.998184 -29.064575 -29.03237z" fill-rule="evenodd"/><path fill="#a40056" d="m52.913387 123.32598l0 0c0 -2.4422302 1.9798164 -4.4220505 4.4220467 -4.4220505l0 0c1.1727982 0 2.2975655 0.4658966 3.1268578 1.2951889c0.8292961 0.8292923 1.2951889 1.9540634 1.2951889 3.1268616l0 0c0 2.4422302 -1.9798203 4.422043 -4.4220467 4.422043l0 0c-2.4422302 0 -4.4220467 -1.9798126 -4.4220467 -4.422043z" fill-rule="evenodd"/><path fill="#a5e5f8" d="m1276.2484 585.4488l3.3862305 0.6851196l0 20.70227l-3.3862305 0.6850586c-6.0826416 0 -11.013794 -4.941101 -11.013794 -11.036194c0 -6.095093 4.9311523 -11.036255 11.013794 -11.036255z" fill-rule="evenodd"/></g></svg>